<?xml version="1.0" encoding="UTF-8"?>
<svg xmlns="http://www.w3.org/2000/svg" xmlns:xlink="http://www.w3.org/1999/xlink" width="40px" height="40px" viewBox="0 0 40 40" version="1.1">
<g id="surface1">
<path style=" stroke:none;fill-rule:nonzero;fill:rgb(76.078431%,54.509804%,22.745098%);fill-opacity:1;" d="M 17.8125 0.121094 C 21.851562 -0.324219 26.039062 0.488281 29.601562 2.464844 C 32.882812 4.265625 35.640625 7.007812 37.464844 10.265625 C 39.410156 13.726562 40.273438 17.78125 39.917969 21.730469 C 39.59375 25.722656 37.992188 29.601562 35.4375 32.6875 C 33.257812 35.347656 30.386719 37.421875 27.179688 38.65625 C 23.199219 40.203125 18.707031 40.40625 14.601562 39.246094 C 11.152344 38.289062 7.984375 36.363281 5.519531 33.757812 C 2.984375 31.109375 1.203125 27.75 0.449219 24.15625 C -0.417969 20.113281 0.0117188 15.804688 1.671875 12.015625 C 3.359375 8.105469 6.355469 4.777344 10.0625 2.648438 C 12.433594 1.28125 15.089844 0.417969 17.8125 0.121094 Z M 9.980469 4.695312 C 6.925781 6.691406 4.492188 9.613281 3.097656 12.984375 C 1.589844 16.566406 1.292969 20.632812 2.230469 24.398438 C 3.003906 27.566406 4.664062 30.5 6.945312 32.820312 C 7.332031 32.3125 7.730469 31.8125 8.105469 31.304688 C 9.582031 32.199219 11.363281 32.484375 13.054688 32.28125 C 14.296875 32.136719 15.480469 31.527344 16.3125 30.582031 C 17.554688 29.234375 18.15625 27.472656 18.847656 25.816406 C 21.109375 20.316406 23.410156 14.828125 25.683594 9.328125 C 26.621094 9.265625 27.554688 9.359375 28.484375 9.316406 C 26.027344 15.222656 23.636719 21.140625 21.179688 27.046875 C 20.734375 28.1875 20.214844 29.316406 19.519531 30.324219 C 18.472656 31.894531 17.027344 33.238281 15.296875 34.023438 C 13.390625 34.898438 11.210938 35.0625 9.15625 34.734375 C 12.699219 37.371094 17.230469 38.636719 21.628906 38.226562 C 24.878906 37.941406 28.035156 36.761719 30.671875 34.859375 C 33.503906 32.820312 35.734375 29.96875 37.007812 26.730469 C 38.402344 23.25 38.664062 19.328125 37.769531 15.671875 C 36.933594 12.210938 35.050781 9.003906 32.421875 6.597656 C 32.300781 6.902344 32.179688 7.210938 32.046875 7.515625 C 29.574219 7.496094 27.097656 7.503906 24.632812 7.503906 C 21.539062 15.101562 18.378906 22.667969 15.234375 30.246094 C 14.308594 30.246094 13.378906 30.246094 12.445312 30.246094 C 14.15625 26.152344 15.816406 22.027344 17.515625 17.933594 C 18.941406 14.449219 20.40625 10.976562 21.824219 7.496094 C 19.339844 7.496094 16.863281 7.496094 14.390625 7.484375 C 14.714844 6.699219 15.039062 5.917969 15.367188 5.132812 C 20.46875 5.132812 25.558594 5.152344 30.660156 5.140625 C 27.585938 2.902344 23.789062 1.679688 19.980469 1.691406 C 16.457031 1.691406 12.933594 2.75 9.980469 4.695312 Z M 9.980469 4.695312 "/>
</g>
</svg>
